# xmcd
#
# Track frame offsets:
#	150
#	11784
#	23700
#	34369
#	46876
#	61146
#	75068
#	87853
#	100369
#	112142
#	125515
#	138616
#	151590
#	162443
#	174225
#	187395
#	199590
#	212891
#	227522
#	240177
#	254652
#	266251
#	279150
#	289573
#	301885
#
# Disc length: 4173 seconds
#
# Revision: 0
# Processed by: cddbd v1.5.1PL0 Copyright (c) Steve Scherf et al.
# Submitted via: EasyCDDAExtractor 8.0.1.1
#
DISCID=4c104b19
DTITLE=Various Artist - The R&B Years 1950 (1)
DYEAR=1900
DGENRE=R&B
TTITLE0=Louis Jordan - School days
TTITLE1=Wynonie Harris - Sittin' on it all the time
TTITLE2=Smokey Hogg - Little school girl
TTITLE3=R. B. Thibadeaux - R. B. Boogie
TTITLE4=Ivory Joe Hunter - I almost lost my mind
TTITLE5=The Robins - If it's so baby
TTITLE6=Lionel Hampton - Rag mop
TTITLE7=Little Esther, The Robins and Johnny Otis - Double crossing Blues
TTITLE8=Walter Brown - New style baby
TTITLE9=Dave Bartholomew - Country boy
TTITLE10=Roy Byrd - Mardi Gras in New Orleans
TTITLE11=Eddie Mack - Gonna hoot and holler Saturday night
TTITLE12=Nellie Lutcher and Nat King Cole - For you my love
TTITLE13=Fats Domino - The fat man
TTITLE14=The Ravens - I don't have to ride no more
TTITLE15=Roy Milton - Information Blues
TTITLE16=Roy Hawkins - Why do things happen to me
TTITLE17=Clarence Garlow - Bon ton roula
TTITLE18=Amos Milburn - I'm just a fool in love
TTITLE19=Buddy and Ella Johnson - I'm tired crying over you
TTITLE20=Jewel King - 3x7=21
TTITLE21=Cecil Payne - Ham hocks
TTITLE22=Lester Williams - I'm so happy I could jump and shout
TTITLE23=Joe Thomas - Wham-a-lam
TTITLE24=Gene Philips - Slippin' and slidin'
EXTD=
EXTT0=
EXTT1=
EXTT2=
EXTT3=
EXTT4=
EXTT5=
EXTT6=
EXTT7=
EXTT8=
EXTT9=
EXTT10=
EXTT11=
EXTT12=
EXTT13=
EXTT14=
EXTT15=
EXTT16=
EXTT17=
EXTT18=
EXTT19=
EXTT20=
EXTT21=
EXTT22=
EXTT23=
EXTT24=
PLAYORDER=
